<mxfile host="app.diagrams.net" agent="Mozilla/5.0 (Windows NT 10.0; Win64; x64) AppleWebKit/537.36 (KHTML, like Gecko) Chrome/129.0.0.0 Safari/537.36" version="24.7.15">
  <diagram name="第 1 页" id="6GBJx-SLdhqFfseAXvq2">
    <mxGraphModel dx="2074" dy="1098" grid="0" gridSize="10" guides="1" tooltips="1" connect="1" arrows="1" fold="1" page="1" pageScale="1" pageWidth="2339" pageHeight="3300" math="0" shadow="0">
      <root>
        <mxCell id="0" />
        <mxCell id="1" parent="0" />
        <mxCell id="LbzSEkfw_HT16GFnGWvO-5" value="" style="shape=image;verticalLabelPosition=bottom;labelBackgroundColor=default;verticalAlign=top;aspect=fixed;imageAspect=0;image=data:image/png,iVBORw0KGgoAAAANSUhEUgAAAPMAAAGVCAIAAACkTlCbAAAgAElEQVR4Ae2dfU8b17b/7wvpS+h/948ihBQZXRo1t5eiFlDSHhLShuZAQ9NbK1eOcKLyI6QpvglB4JoaDhAoGEywOQ7BwIQHO9gu+HTmJ3oIbVAIeTiJifsirmbP3uMZz5jY4IdheUkIDePtmb2/67O/s2btSebfhDiPP6gAPAX+Dd6QcESogBDnkWy8ZMFUAMmGGVe0bSQbyYapAJINM67o2Ug2kg1TASQbZlzRs41M9uqNtrmytrkL3rUiiBNnv2AqKTWV2NxFMNh8uEkRkc0/mfT2fNb11Tu3G9/pnVwyGEBZJXvHNzLe2vxFk3MrHwwZTEk65KIgm/9jbPxW1e1GkWnpBzjZQato/6X1diTbkNMuG9nI9tjY9RMU6K9OOK9RvpFsQ0Y8m1cY6J4dvtol+vS7PTc7F57yQuAyejZ4pqUBQic77p+8fmFy/SENJ5JdNA/A5YzsV2se7+Il29xHpL5R1jb3wfW5zzu5trmIvme8jKjat8993jlfl/XaiEHIjgX8s+3NTdXvl5N6SGlF1emTNVX6tZHoptc5bGluqq46LjU2mWqrG23dnqQcmubWtA3Js3W2z41zKv1j61zE0Xmjqf50pUlMzU0lYmcarOPuQCybuYHqpHmZXbkh+5+BS+1iwU7nZ2hVO8hoZPlCqvbZrfoZgezN/m8/q0hFXnLVb6v7HAVOi2mlNRhKiHkgsgPj9Sl7Umv1vDjCcOeC7FBXB2G6g+u6vzr3+1p4Zy28E7m3HBy8u3jVqwiGNHf55fPSHGhfuHk/9EBsvPZgLTjo4gB69os7Fsmny6u/HR71b4XCO6GA4B4Zt5yS9ifVs7e6zx2vbGxrt8+6pcbhLZ9r+OsaehCz6xWDL7Ye3hGPJv7MmgmvdZ3rbI/8kdyeiB8YrzfVNlic3SNBX4C0CQijnd9Vl5HpVNZ+J5oXf03Mz+ydLgdkP1q5QEhtW2Gi79fdtb7b0jRY9DxLap+N2kjSqQvs2ese2wmRufJ6+2bSYFPUs2O8oJcVROfNEnzWYNJxyJ/pV/30Di7EQyNt0lXF6kkS8Oj8mQOy/wh8I+XHd1Ok1Ep1+OXPSeObEW2EwJH96o6FeGHjVEDjUinIVmql3GaHSs6bpTbpk608pmI7Oi+5/hGuiOeA7Pjaz3aaYX90e7FvNRJVXwGVQQ3eWyC5+KJnrwjIXrUSo63TGDYvxDMkO+62kkmSI7KFQ88NZZQLsp0LsnnhWejHbtXtY1334o/z4bAG8XujpJlt+YHCMJgQ0Dw7PN1E0l/ziEaH/ciOcZ7xVmVtRHnPlwWyt9z2LmVtRHmrip6twyUf/v/BviGuTln0aF/oCkUZuKJJe4YI2Z0rxUA2K0RYXDrZbQrP3uxuZMU+JdDy9iHJ5twNrNinBFreRrL1yGYE/xr9LTQ4vPAJRXyh71Ei8XjgYdmI9gh7q21Svp7FZ/0Kewe5ZCFE6uLC2c8TnlS1EX/nWbKzvK6V86uveNnIRjZunZJqIF9YXRuhqHK+YTbC8E3AmnIPq+59cy/xVGp4liN5tgp3coQotfMC1rPFVYxRV4RThVw7A9Pfs976oUhShbagwY3XS7UOVT1781Y9Ie/bWU2pNK08WzehT0SKG60jM+3rEW3dGslOybE23i+DV7UezEqE591hxaGic+6FD0jjLD+fnYln+xyV0kW/7GI3p/Qz7dDS3BNzW0kduqxNVScOzJurCMHi6ZSeTe84TZb5dYU4vBDjXF110kzQz0bYlDg3ql5xVPfT0yWV9jR5/9Zo6xfSR7qXl8TcUPVKffCCf5T9O8jgfe7Cj4s/3g9OrEXIGg1ZpplfuSHVrduS7DlRSLnkWn2wsxbkgzellje5q51iFn64f3nwcHFpaEb+GTorPRHV021P7OTZUyWq2LDEN4XLHixybLZU1NxwiCsvG266LFJutlzRZCO7/c0S8bVfd3LiSkpAcDudTacUmbc+2XGWxpRW1Pc4fBuK9RrFzSu7ozVVXbnlErjwDucPOmwtJxWZN5KtYCLolVJnVW2ELrO3z7dxiVSEwvFIZyn+A9ui5xldxDkc2WN32DPZ9FlW7Z89Y7qY+odOSp5dUmpKAVDm7vXKfV27tH68wbnJe2wasuO8f5h6s9wTslFR853Vclpsn6pj0aCVrlPKVwOyoWof83VSbyanlluWV3/bZa4R/0SyFWRH+UDXEHfBNq+sitTZuKt3gw92UqCwE+rrW5Daf3SDu+FdDYrWUmCyhVjCtlVAKAarOyXesjPGuXoaairFy31Z5clmZ79/V5RFl2whzge49uYm+rhSWWV1fUv7iBCSq4T7dWxrtLONnkieGMntY5zL2VRfK+UeFe9/Vkf7Q59XQbIPGWyjfp3dY+nc870FX6OOqHi6nf08G5B2AeclcpmusnoU6SmgAaa4hIKYlki2fnSjG+7OK1JtpMIyry266X8LoTeOAki2hlFayiVuXV797fR+hTPjBBJ7kqQAkq1LtuJeCsSlOSnqxfAnkq0hG1EGoQCSjWTDVADJhhnXYsg39h8jko1kw1QAyYYZ1/39rBg+RbKRbJgKINkw41oMrrz/GJFsJBumAkg2zLju72fF8CmSjWTDVADJhhnXYnDl/ceIZCPZMBVAsmHGdX8/K4ZPkWwkG6YCSDbMuBaDK+8/RiQbyYapAJINM677+1kxfIpkI9kwFUCyYca1GFx5/zEi2Ug2TAWQbJhx3d/PiuFTJBvJhqkAkg0zrsXgyvuPEclGsmEqgGTDjOv+flYMnyLZSDZMBZBsmHEtBlfef4xINpINUwEkG2Zc9/ezYvg0t2SHVzuam8QXULgepwUQN2tpPF3daHP4te9x0/tvFDNtXwwRxTFKCuSSbPYiTfElKbWtvre9eC7Kmek7EUtNZZb+sB7KyrBl2l75XdwGr0AOyWYvY5beW/X2d/nQVxDRN1xZPW8jO9P24GOJA1QqkEOyhYj0ylrp5QFm19te9RKeapBfgVVy9hb3NrIzba8cNm6DVyCXZMdDPmf9++Wmssp6WySNV73EuIE28TWbprPmgc008vJM279tqoAPdlENMKdkp0En0oYK5EYBJBunH0wFkGyYcS2qxEN3sEg2kg1TASQbZlx1bayodiLZSDZMBZBsmHEtKnvWHSySjWTDVADJhhlXXRsrqp1INpINUwEkG2Zci8qedQeLZCPZMBVAsmHGVdfGimonko1kw1QAyYYZ16KyZ93BItlINkwFkGyYcdW1saLaiWQj2TAVQLJhxrWo7Fl3sEg2kg1TASQbZlx1bayodiLZSDZMBZBsmHEtKnvWHSySjWTDVADJhhlXXRsrqp1INpINUwEkG2Zci8qedQeLZCPZMBVAsmHGVdfGimonko1kw1QAyYYZ16KyZ93BItlINkwFkGyYcdW1saLaiWQj2TAVQLJhxrWo7Fl3sLklG98HqSs67syDArkkG98HmZs3sOQBCwCnyCHZ+D5IAHwc3SHkkGx8H+TRxQJAz3NJNr4PErORwimQU7Kx7IAKFEwBJLtg0gO44ht5CEg2kg1TASQbZlyN7Kb56RuSjWTDVADJhhnX/Piikc+CZCPZMBVAsmHG1chump++IdlINkwFkGyYcc2PLxr5LEg2kg1TASQbZlyN7Kb56RuSjWTDVADJhhnX/Piikc+CZCPZMBVAsmHG1chump++IdlINkwFkGyYcc2PLxr5LEg2kg1TASQbZlyN7Kb56VvByebsF0wlpaZz41x+BpzBWWIBV09DzemG60uBDL5VuH/TKnYyaC0pFfVU/hhR29yrhGSn9Gxu+CTjo2lgN2UzY0GPZLM5g2SnRNbnOMHIrnc+TtnMWGSzuJJeua3EvNGzCxI8A2cjL7y2poqS0op6pzeqIqYgQh3gpEh2IcNmYLILKcsBONZ+BckuZAiRbC2R2dqDZOeI7BjnGW9tbqo0Sbfq5SdqzObOWX84poyciuzwusNqrn6/XLy1N9U2WKd86saKL2657baGmtoKKRU21dY1d3V7thQNDjgo2h+WYUtFBqsn1dGkO7YL3YE4L+z6nLaGmkrSpeOV9S3tLlV27u88S45W1erTPVrMe71KbFDWfkeZ/EQ3vc5hS3NTddVxqTMmU211oy2dwSLZukIfbmc00l7PIqGmxGQNKvmTyfZ5uqrL1OWqklJTlc2tDDO5MQr5hxvobEluX/nt9CGrhwck2x9pPUUmpGqw5U0DO4nBhqcayKcnrkcSO+Ub0ChnJsNXf7rVfS55jJTvktJKazAkf11vA8k+HMQ6mq6319AwV9Tbul0CF94JhTe8rqn25rMVumR/WFspxvV4nXXcze2EAkJ/6xeSH1dYuHXlKbjxemkCmJosds4X2AmFt3yucQubSJWtq6r2yu+msx3dDYm9JT++oTrC4ts8u7yCdKni1I1uz4bYn5GuOqmTH/Z4Eyd9dcdCZElyZdJgfaSNIHu6w68Mx1b3ueOVjW3t9lm3f4v0asvnGv6ayltudr3SmSTsjEi2UsrDb8e812tJkMrr7Rt6uutlI+JV+ItWj7Js/MptJVfnkkuOsNyrnf5mCY4WR0B1HF547JA+Kjl7i5PbH26D/RfgbyNbtNWky0Vo5IqW1HVXO5muWiJ3HI3Em08N+xmXRLoYLyQNk4woOi8ZfNIFMEltJPtw4VdFIs6zq2pF83Q6S3fs6l9r9bxICgzvH6omlmkeYc7EUGtwKq7ycgfY5b7Ovpl8KLlNRhvsdG8lu0JbM9b/bqT1Q0Jw87QqkWA91x+XTp9f3bGQ42jPq2iMZGeVbLbAYXHpmY1Cdwk+Oc/Wy4+XLITseju9NWSX7Ivkjk3b7c1b9STe1qU8k62Dvj7ZcXYfqbwQsZ16WUqqgaRDbTptUh3/yO/P+hokg08qF2jhS96zL9l0rfjE9XVJaGbwNrdmhpAGsdHsrrqloFMRddrD9MnmmT2f7JRTNaGjRpyQ6ntHWShaYkrURshsp/eR6Nn6JMT5rJMdcF4komeTbDm7gEC2wBIJOaX29ZBlfN1q4GZ3Y4oSk8Q3kp03snmPjZCtGyfZhxIb+3l2dN5M4ic/kMSmzVuzEVVhUWGxifOmtTMXni3E2X1kVatPvEGkZWwZdEWoWOpSXtfK+cPsZoM0SCfTSKdNWjoounRk2mfds3lGQ4prazJb+5DNCFDUOlgSr3+nxZ7Ok2eCOgwx/4hNfCrVOuXT1MjVLVkn2Vh0kg0a7MyzEfGL9D5SlIjdcOuNiN02fDurut1EstOZadknW2AFrBK9cofYJ9WdZWqyN29JixSNU4oayz/aq8g9YpVtNHl5crP7XMpqMZ9wSvHradZt5FmabbLZLeOHPaMjpA6of++4apWK4pZ5dYU+xrlYvRyzkVSU54DsOO9zVNK7HHHlpd+3QZcYPFMdlqYUKzVtt3wboagE/auAf9YqLemVXezmVDMh5LpBHy5VrdQkFi9Uy36KYdNLM+1YynvQdXmZJrwTYis15hG2dhPeYZ2UfP1gnh1n95FVlVXibExxfdvtbybTuKT2606yJhUQ3E5n0ylF5p1M9ovEMlN4p1+qDNYP+RKD0pRWFRLpX7iOaIOckC3EQh4HXYSjJEkRIr911yC1zcRHR5rafdpIxDjnJfq4SPK3jjforw2JFAacl2g9oaTUpJfUkrjut5otfV0uQZL2ByU7cWUrNZVICTdLgZQk+Yd1Zayo+c5qOS32J4lsepOjUDtZolRTWu/syp4cue3ckE1kim6qHloqER8SarUHOWrMspQv/J7xdou5Wn68qeR4ZY3ZYg/qVbjZtwLBbqtZLoRVVDU1tY67k1clWWMalc1+y1nxeetTbf3q64DCq/JGtnwfuc80I/0PcO3yU2VlldX1Le0jQkiI62dxSLY8A3NItnwO3EAF8q8Akq0w7CSPxz+PsgJINpINUwEkG2Zc83/1N9oZkWwkG6YCSDbMuBrNQfPfHyQbyYapAJINM67590ijnRHJRrJhKoBkw4yr0Rw0//1BspFsmAog2TDjmn+PNNoZkWwkG6YCSDbMuBrNQfPfHyQbyYapAJINM67590ijnRHJRrJhKoBkw4yr0Rw0//1BspFsmAog2TDjmn+PNNoZkWwkG6YCSDbMuBrNQfPfHyQbyYapAJINM67590ijnRHJRrJhKoBkw4yr0Rw0//1BspFsmAog2TDjmn+PNNoZkWwkG6YCSDbMuBrNQfPfHyQbyYapAJINM67590ijnRHJRrJhKoBkw4yr0Rw0//3JLdnh1Y7mJvEFFK7HaQHEzVoaT1c32hx+7etp9P6X8kzb519fPGOhFMgl2Ru3TsmvAqolb/XUo1MeOXszovhioTJLf3jfxkJcfpNiuu3lE+FGMSiQQ7LZa0L1XsmlR6367UGpX8HIvptp+2IIJ45RViCHZLM31RKyy80u1cuVdZKT8FRD4hVvivf2yn1N2si0fdLX8U/YCuSS7HjI56x/v9xUVllvi2jfr6yBO8YNtJ00lZpMZ80Dm5pPmVUn4pFpe+0RcA9cBXJKdhp0wlU2MQNxjIVQAMnG6QdTASQbZlzxioFkI9kwFUCyYcYVPRvJRrJhKoBkw4wrejaSjWTDVADJhhlX9GwkG8mGqQCSDTOu6NlINpINUwEkG2Zc0bORbCQbpgJINsy4omcj2Ug2TAWQbJhxRc9GspFsmAog2TDjip6NZCPZMBVAsmHGFT0byUayYSqAZMOMK3o2ko1kw1QAyYYZV/RsJBvJhqkAkg0zrujZSDaSDVMBJBtmXNGzkWwkG6YCSDbMuKJnI9lINkwFkGyYcUXPRrKRbJgKINkw44qenVuy8X2QSFihFMgl2fg+yEK8n6VQJBntvDkkG98HabRgF1V/ckg2vg+yqEgy2mBzSTa+DxKzkcIpkFOyseyAChRMASS7YNIb7fINrD9INpINUwEkG2ZcgRnwAYaDZCPZMBVAsmHG9QAmB+wrSDaSDVMBJBtmXIEZ8AGGg2Qj2TAVQLJhxvUAJgfsK0g2kg1TASQbZlyBGfABhoNkI9kwFUCyYcb1ACYH7CtINpINUwEkG2ZcgRnwAYaDZCPZMBVAsmHG9QAmB+wrSDaSDVOBHJD9aOVC21xZ0s/QauaWsHqDHOSCdy3z76YRraC1pNRUUlpv30qjceH+PV9Oxl4Ew0Gys0L2Orfq6GxrqOpxI4gGUSAHZKv8YK3vNvFv4J7N2S+YxCuADck2ygUQyc6KZyPZRgFavmIg2Ui24aCU6TzMBpKNZCPZqgQ6TTnSzrNfRjzexUu2uY+kokr73Oed83XZq41EN912W0NNbQWph5jKKqvrz1bq10ZiAT/XbWtrqPnsRJlYPDGVlJ+oaWqyzfrDMeWoWQYitUn52+pJ0m3H5xpvt5irayoVnWlpHxFCh7Eo/G6SAobw7Ghk+UK7plDI6oaHrvqFfM46U0rykj3bYyM067Uvu9jNJeA+GNluq96RyRyrODfOJYUH/zywAgYgm18+T3164eb90IOdtfDO2oO14KCLy4pn+4dOSj5tamp1RvzhnVB4x+/jHDazvmd7bBXvf9FkHXa4aOMQF3Fcb6L+emrYL2sd3Q2Ro4XCO77O82Q+tPezPfJH63J7suG2lp841WLpnBr1bUht/L6p1vrj0nQ62bmhvCzg9sEVKDjZLF3pWPQ8SxpGNlZqtrrPEY+ssrmjSVlBqpWahCsr+hPzd54l8F3oDiQdR/yT+Xc6VT/d4wsdp0g/0bbVRqAIgY7s+31aaLL55c+JYd+MaHuZBbL9Q9WiYVe1+rQ8pSI7hYL0UKWavDlTsvWP7+88TWZOOnND/whaAYt6T4HJDt5bIOvwi549bRgOT3bAeZHgcmNUxwkyJJv9R/c5IjsT10ey01CgwGTfGyU3jrblBzp9PTzZ3utVItk1Q4nkOIF4arLDQn+nsjaiuuc7NNmxkH+2Q1kbkW4D6G/0bB0StK739j0FJtszRMjuXMkN2bQQUT+qV3PQJzvk6aqmxT4V0MT7xT2HI/uFu/UzejOqAlo+F5INg+wHHpaNaMezt9p22Ho2Z5dKFrq4LFkIW6qqX5QzS1hXXen2banKGtnIRtZd7RLWld+OewMvlMaD2YhSjSxsF9izw7McybMX+h4lDSZK7bxt7hD17NCAhXittqDxwm2tlWxYRbbrBtl5ut2vueNMi2zdhF6etLFRqZhd8zdfIiminyLZSQAc9s8Cky2wh7nPu8OKYEfn3AsfZGOlhuF4slNQKPXC13lRTgmUZLM7ztMdfhlHshFe7/6WzgTdbISnU6LK4lI5seKkcV54TEuQyXl/LOQb/7pKSkh0Ly/qziiEUh8fmykUyAHZL6NhstpCfod+7CSZdF8wsfPpPxSxWfvZTlcfL7lWH+ysBfngTenB15vcVfLdQ3g2L+z0N5cTGz7eYAv6wzucf5Yui5xqM9eLMCnJ5n2OEyRFqTjV5SArKX7fbLf1IltmT5ln83IaU/bZ152cLyCuB0k/ypSG3tGWlNe1Tnm5nVB4wzsybjnHltnFUyPZCjoVnGQ8h7NPdtArpc6U1+R/XNM2V3Z7Jajs/aPAJc3S+ge2Rc8zuohzKLLjfGCqQbO0XlHT5Y7SRRwV2cLOHQv1ZilXYb+P1123NRDo9T1biHHOS/J1gH1LMxPC82bqzZJDs9+mplbrJfItJFvJxiG2DUB2nBd2Qn19C3WE749ucDe8q8FXvBDPDtlCnA+vd1uaKgnfFVVmiz1ISiW6ZMd5YdfntDWwx5Uqqk43WMfdgRgv0FpKCrLjvBAL+aZam+mJZLiT24fXHVZz9fv0SlJZw/pDn1dBsg9Bs9Ljs0+28ui4jQoUSgEkO+MErlChwvNmpACSjWTDVADJhhnXjOwNZGMkG8mGqQCSDTOuIG04o0Eh2Ug2TAWQbJhxzcjeQDZGspFsmAog2TDjCtKGMxoUko1kw1QAyYYZ14zsDWRjJBvJhqkAkg0zriBtOKNBIdlINkwFkGyYcc3I3kA2RrKRbJgKINkw4wrShjMaFJKNZMNUAMmGGdeM7A1kYyQbyYapAJINM64gbTijQSHZSDZMBZBsmHHNyN5ANkaykWyYCiDZMOMK0oYzGhSSjWTDVADJhhnXjOwNZGMkG8mGqQCSDTOuIG04o0Eh2Ug2TAWQbJhxzcjeQDZGspFsmAog2TDjCtKGMxoUko1kw1QAyYYZ14zsDWRjJBvJhqkAkg0zriBtOKNBIdlINkwFkGyYcc3I3kA2RrKRbJgKINkw4wrShjMaFJKNZMNUAMmGGdeM7A1kYyQbyYapAJINM64gbTijQSHZSDZMBZBsmHHNyN5ANkaykWyYCiDZMOMK0oYzGhSSjWTDVADJhhnXjOwNZGMkG8mGqQCSDTOuIG04o0Eh2Ug2TAWQbJhxzcjeQDZGspFsmAog2TDjCtKGMxoUko1kw1QAyYYZ14zsDWTjfJK9/dPNPytb/qwc2gUpJQ7KUAocWbKfPhmeeW3+Ye+nP9B0UQEdBY4s2ZHXov23vEGyDeWUxukMkq0z3Y0THuzJgRVAspFsmAog2TDjemCrA/PFnJEdezy7/Np8M157hdRDWv789Ps3Z/6fbm1kI7r19G9esfGnV2njj9vi3wy9nNr+TSU0za1pG5Jn62x/NbOt+tbeo6V/vOwa3Dv/ffxjMTUXfz79/s13M7tLsX2xfnzHeraipLSi3umNxvdtiZ8aT4HckL310tKuwxxlManq98fLrxhwGljj1yKPEpgeiOylmTeaw7K+tb2eepkK2XVXe0VJqYn8VFi49UQ3jBdF7JtWgRyQ/fJ5i+TTV+IW7/PZ7d8jz35f2tgdnomdl/Zryb4a/6bv9U/Lu1LjyPYTtzd2hh4kNvqKwRd7FHkmHk38WY4RXt908WyP/NGrDeU4l2befNz2pmXi5fDakyXSZmnjud1J/fvjvz1P4cec/YKEtfj7nDugPCZuG1+BrJP9aGqIOOKVNz9tqQgT4ilWavZ+E/YYuwo7jARiUvJwLaLzqZB+1S+mTmnoKR6N9knO/XpKcVJlwMK+r02SZ9daPS/0+pDii8qD4HahFMg22a+et5DU4puFx5ohpSA7FR/sUMl5s9Q+fbJTHD8aoK6/T0U8uul1cd7A/ul4iuNrho9zI68KZJvstdfEaN/Yt7TDyJDs+O41MklyRHYGro/sHkEFskx25MEeSX8VyXFClNRkx7anZlS1EeU9XxbI3t796WdVbURxfFzF1HoQhD1ZJpsVImJundQ5BdlbL79hxT4FcKx80fLn4cjeWLq/Jxf79I6PZEPgWJv7ZZlsYXWf5HXbbiO8qmojT+w/0DvOa8EnEVVZIxvZyKN/fU5Smo9tr92Pfo8q59uhM3WtmrjHOApkm+x/vK4lJF2LJBVGNsTqG/lI9RTr1svzZKdlWVG3pglMWmTrJfQJE1ryScXsvWFt3ToNsvEO0jikZtqTbJO9t3uN1KE/7nseSWTYGw8DsU8lrJOez6Z3nH+2BNRkx7bdP9OZoJ+NsCnxlU+94pg4qcj31M9SVqPJ+7efX5MuIKmfFsSqX6YwGap9tsmOb/hccSmdPTP4Ulx5ebRLl0WuxFp6NdnIs5dmifi2PfuquJKytLH7t4m9zxWZtz7ZcZbGtPx5fvSl75FivUaR0rA72j8/7f2Xe2M78mx7du3l/9oTy+ypn4MNOC/iSk3i6mcoatPpTNbJ5oVXuze0S+tX937a2qCLOKo8e2PWy7IU2dTJxhnn65bvxZmQgmw+EnlN1ynVX1S133vSRb1ZMm/2+0rc8nPsjPjFVHeQuLp+hLEW4nwOyI7zQmzbPfrmzHciRh9/98Y88Zx7JqbdemTzQvy3paBY8pOy8I+/i5+3vx7+5+/ymqWKVHWyIWw/7+qjJ5LrHsntY9vuib3zbZTp2nbWH/q8SiqyeQGfiEpS+0j9mRuyj5QE6VzasM2RUwDJPtrX3PjvfqQAAAhbSURBVCMHXN46jGQj2TAVQLJhxjVv1mjYEyHZSDZMBZBsmHE1rJXmrWNINpINUwEkG2Zc82aNhj0Rko1kw1QAyYYZV8Naad46hmQj2TAVQLJhxjVv1mjYEyHZSDZMBZBsmHE1rJXmrWNINpINUwEkG2Zc82aNhj0Rko1kw1QAyYYZV8Naad46hmQj2TAVMDLZcyPvDTreG+x3BfM20bN4ohXXiEPs/8QM/tu5QiiAZOfKsbJJ9uulmcEv7eZ/v934zu3Gd7sunb0zOfbwda56nsXpXcBDIdm54iNbZK//+oOz+R3CtPr3pcszT3PV+QISma1TI9m5giM7ZD9xOr8iQDfXDPsmA08fRn6b9DprKOhXOwPK/6mwEBf9bIGY9eMg2UYme+3e7XdFiL/6bPKfqn6uBy73kMzEOfMw60zAOCCSrSImi0HNgmc/sTtFfN9x+rT4rt27RaC/2vkQrVpPAaOQzb9amXVNDPxliNQTBh3Hhnr/Otyrro1wg8Pip03TK3ojoVBuTveL3xqZ3FQiG10JTI/893BvhVhscbw32PvXsTHX/IrOazqCk02Jgkx0a36yY5R+q2JooOPvC09/1aM/uirMuC6P9P4nPb7jk+G+U9JYDl4bicx8SbKOL72afJr/zd5vltJunU/1eqhUoyi2DUH2L+GpfsYcJZvwJ23LVb/1uTFxz7GJ2X3IDkyQb43PyNS+eDBhZsApDis2+2TMu5lEqkz28uLdMWlqSd2gvz+ZmEl6G1NsxXuVTLmkg9M/D062v4ew29IZUI83snS5R0q+iaPfCRQFqZlO18KTzQuePgmCipGxu9zik9Dqk9Bi+L63dzTJs4W1SbJnVOth8rBXJkgV+S8eTqIhtjLZTLHu75j2CcHVJ6EV4f5kh1RsHnR8MjErv5VP/Aolu/cT4rjHhgd6ff6N0OrW4nQnxbfvzrJ8OiH+y3QrPX7fVY90/NWtxdn708Nnpf0HJntp8iohu2dMcTp+afKsdPvY0/FlLyG7d2pJ2QC3JQUKTjYlyaH1wrhmpebx35MzDYl1RX5CM5b/8a0Ssle9o5LXDtxd5VXO9+vDu/QjNamsP+8NOk6NTz9WOjr7iB1ciPPrgQk2/VbUx+cPnWdTsrv6Jymsew/vdZ8gWL9r75+M7I3dkcieRLJ1rlqFJpsa9tBYWMmQ1FEN2Yz1EXb99dulXHZkkr3KbKZDdMpeO0doYCya/y6Brvaz0F0pS2mYXk5Az77S5FmU8xn2qXRwRaK/Tg1b7/iHJts/fln07F4J3Be+8WvSSs1/9M/4yUCQbB2g5RAXmGyaPLynSIsZRgLjWM6z5VSB7Vmc+AvLBGiGQLnsnyAL8q9mhkieQ/9MHJkqsvyzlJMoz87I7piTNUq9MT9yTOxA/88r2jaHJpt6tn3CL2wPDUj3i19VjYbX2LmQbAOTTU1XTotV8Gk9m1dZsuT3fxkW0/QznkXxu9zYf4moUVPfkuok7E/VwUVR+MVxkqskLF+ePI50yH7qGyAzZ2hO563s2SL79uUqu3S/aP7ve9uKWLJsBEvabKorxMnV/wyvYUj33EKckupQ5QNy/3TIpi7bOrMe5xfviLd0A977hObhiQ1eiM0Ni6gxUnNNNjv+8KI2lTp8ns3PdEt1PfL72g+LSTUZ/gdpsWZ4VVYMNxIKFDgbYfmAXgGBYqp61o8W/sRbRiltGPU+/dXfLWbb4o0gRY0djd5xDr4tG2HtxQmZSTai10N5Du83tPRm/sNJaRX93Z7uoZBmFT3kk4okF+79KxFO+ey4kVOyfw0/9Az9dbj/8tSMqsiQiASrXTCXTYT8l5kO6e5QRbZA7zgnZiSIya0bHybVwDOexYekmJ24AtDkxKF3hyfElyfOkDRdUevIjGyW/Dg65pIKI/zmdD9JwQ/1FCt15WOj4YRiDFl6f3n7e6fiHW7aZsW7J5dkb7BCtbgmMunXlBrEILELet/gogKOXxYGWb056flsmtqOuvrEmt3A3ZB4kJhE8PDEIMmbSa4iEbDQK02PoZHFiOL4vBD/dZk+Pz04vKDMkjPx7PivtFpybGxakSrwj2eGP6G3tociO85K2ld/WFI/sxqY/IyU/47dCcg3lMULMZvtKgVySDa7hZJirHVlqR8h7/9QCAZ65xfFZZSZsb+SPWfGhhrEDVYJkdpL5YihXvFOcfTuE2knTUgcxCb7BhcTQ30xN0zuKcXjKFZqJuRVQ5VhZ5iNxHmeLh6JxW+vuAy0PHtnrI90Y6iVrJge8l8eRK6SZPqd25cujC/5HorP+o1NdldJizVd3WPriaucKq4JBYq1QQ7JpkmCtL54bNynWupThGHr7wPapfVTEzMvqH2qyQ7eZWuKyhxDea4BLzFyFlF+U+/4Uq/M05qidUaezQvx9dlunaX1gYkVnq7zK5N4xahZ996KYGDmSwo3WZeRmBZ/X7PjI6z7qJdDsoX4L/7ekd5jg47/HHGFf9mnE/zTB5OtI/TBo09GR+izSrpks3KKnIpIiNCERPT4kYcagGJB1eNWFUP9lycnA8GoDl6Zks0L8ejKwuSA9PzTsaG+y1PTAsl8skS2WJ38Y2yy52zPRfJwX+O/d139coxbUidXmiHrDK242uSU7OKScp+pix/lXwEkG6cfTAWQbJhxzb9HGu2MSDaSDVMBJBtmXI3moPnvD5KNZMNUAMmGGdf8e6TRzohkI9kwFUCyYcbVaA6a//4g2Ug2TAWQbJhxzb9HGu2MSDaSDVMBJBtmXI3moPnvD5KNZMNUAMmGGdf8e6TRzohkI9kwFUCyYcbVaA6a//4g2Ug2TAWQbJhxzb9HGu2MSDaSDVMBJBtmXI3moPnvz/8BBNYJeHxDvCcAAAAASUVORK5CYII=;" vertex="1" parent="1">
          <mxGeometry x="816.996748046875" y="408.99662597656254" width="243" height="405" as="geometry" />
        </mxCell>
        <mxCell id="LbzSEkfw_HT16GFnGWvO-6" value="&lt;font style=&quot;font-size: 24px;&quot;&gt;这条 load 拿到 1/0 都是合法的，取决于处理器内部执行状态&lt;/font&gt;" style="text;html=1;align=center;verticalAlign=middle;whiteSpace=wrap;rounded=0;" vertex="1" parent="1">
          <mxGeometry x="1075" y="635" width="335" height="78" as="geometry" />
        </mxCell>
        <mxCell id="LbzSEkfw_HT16GFnGWvO-7" value="&lt;font style=&quot;font-size: 24px;&quot;&gt;cbo.inval 刷 sbuffer，将数据块无效掉，不写回脏数据&lt;/font&gt;" style="text;html=1;align=center;verticalAlign=middle;whiteSpace=wrap;rounded=0;" vertex="1" parent="1">
          <mxGeometry x="1076" y="532" width="334" height="37" as="geometry" />
        </mxCell>
        <mxCell id="LbzSEkfw_HT16GFnGWvO-9" value="&lt;font style=&quot;font-size: 24px;&quot;&gt;difftest&lt;/font&gt;" style="text;html=1;align=center;verticalAlign=middle;whiteSpace=wrap;rounded=0;" vertex="1" parent="1">
          <mxGeometry x="1567.5" y="361" width="60" height="30" as="geometry" />
        </mxCell>
        <mxCell id="LbzSEkfw_HT16GFnGWvO-10" value="&lt;font style=&quot;font-size: 24px;&quot;&gt;香山&lt;/font&gt;" style="text;html=1;align=center;verticalAlign=middle;whiteSpace=wrap;rounded=0;" vertex="1" parent="1">
          <mxGeometry x="1201" y="361" width="60" height="30" as="geometry" />
        </mxCell>
        <mxCell id="LbzSEkfw_HT16GFnGWvO-11" value="&lt;font style=&quot;font-size: 24px;&quot;&gt;nemu&lt;/font&gt;" style="text;html=1;align=center;verticalAlign=middle;whiteSpace=wrap;rounded=0;" vertex="1" parent="1">
          <mxGeometry x="1905" y="353" width="60" height="30" as="geometry" />
        </mxCell>
        <mxCell id="LbzSEkfw_HT16GFnGWvO-12" value="&lt;font style=&quot;font-size: 24px;&quot;&gt;store 被提交 sq -&amp;gt; sbuffer&lt;/font&gt;" style="text;html=1;align=center;verticalAlign=middle;whiteSpace=wrap;rounded=0;" vertex="1" parent="1">
          <mxGeometry x="1076" y="409" width="334" height="37" as="geometry" />
        </mxCell>
        <mxCell id="LbzSEkfw_HT16GFnGWvO-13" value="&lt;font style=&quot;font-size: 24px;&quot;&gt;pmem 更新为 1&lt;/font&gt;" style="text;html=1;align=center;verticalAlign=middle;whiteSpace=wrap;rounded=0;" vertex="1" parent="1">
          <mxGeometry x="1771" y="417" width="334" height="37" as="geometry" />
        </mxCell>
        <mxCell id="LbzSEkfw_HT16GFnGWvO-14" value="&lt;font style=&quot;font-size: 24px;&quot;&gt;不做任何事情，由于 nemu 无架构信息无法判断后续香山可以得到什么数据&lt;/font&gt;" style="text;html=1;align=center;verticalAlign=middle;whiteSpace=wrap;rounded=0;" vertex="1" parent="1">
          <mxGeometry x="1799" y="516" width="296" height="92" as="geometry" />
        </mxCell>
        <mxCell id="LbzSEkfw_HT16GFnGWvO-15" value="&lt;font style=&quot;font-size: 24px;&quot;&gt;ld 只能拿到 1&lt;/font&gt;" style="text;html=1;align=center;verticalAlign=middle;whiteSpace=wrap;rounded=0;" vertex="1" parent="1">
          <mxGeometry x="1816" y="644" width="210" height="54" as="geometry" />
        </mxCell>
        <mxCell id="LbzSEkfw_HT16GFnGWvO-16" value="&lt;font style=&quot;font-size: 24px;&quot;&gt;同步 golden mem，更新为 1&lt;/font&gt;" style="text;html=1;align=center;verticalAlign=middle;whiteSpace=wrap;rounded=0;" vertex="1" parent="1">
          <mxGeometry x="1445" y="516" width="305" height="59" as="geometry" />
        </mxCell>
        <mxCell id="LbzSEkfw_HT16GFnGWvO-17" value="&lt;font style=&quot;font-size: 24px;&quot;&gt;做 refill test，如果香山拿到 0，则 refill test 会挂；&lt;/font&gt;&lt;div style=&quot;font-size: 24px;&quot;&gt;&lt;font style=&quot;font-size: 24px;&quot;&gt;做寄存器对比，如果香山拿到 0，会挂&lt;/font&gt;&lt;/div&gt;" style="text;html=1;align=center;verticalAlign=middle;whiteSpace=wrap;rounded=0;" vertex="1" parent="1">
          <mxGeometry x="1436" y="623" width="343" height="123" as="geometry" />
        </mxCell>
        <mxCell id="LbzSEkfw_HT16GFnGWvO-18" value="" style="shape=flexArrow;endArrow=classic;html=1;rounded=0;" edge="1" parent="1">
          <mxGeometry width="50" height="50" relative="1" as="geometry">
            <mxPoint x="767" y="407" as="sourcePoint" />
            <mxPoint x="767" y="828" as="targetPoint" />
          </mxGeometry>
        </mxCell>
        <mxCell id="LbzSEkfw_HT16GFnGWvO-19" value="" style="endArrow=none;dashed=1;html=1;rounded=0;strokeWidth=2;exitX=1;exitY=1;exitDx=0;exitDy=0;" edge="1" parent="1">
          <mxGeometry width="50" height="50" relative="1" as="geometry">
            <mxPoint x="1416.996748046875" y="813.9966259765624" as="sourcePoint" />
            <mxPoint x="1417" y="409" as="targetPoint" />
          </mxGeometry>
        </mxCell>
        <mxCell id="LbzSEkfw_HT16GFnGWvO-20" value="" style="endArrow=none;dashed=1;html=1;rounded=0;strokeWidth=2;exitX=1;exitY=1;exitDx=0;exitDy=0;" edge="1" parent="1">
          <mxGeometry width="50" height="50" relative="1" as="geometry">
            <mxPoint x="1785.996748046875" y="813.9966259765624" as="sourcePoint" />
            <mxPoint x="1786" y="409" as="targetPoint" />
          </mxGeometry>
        </mxCell>
        <mxCell id="LbzSEkfw_HT16GFnGWvO-21" value="&lt;div style=&quot;text-align: left;&quot;&gt;&lt;font style=&quot;font-size: 24px;&quot;&gt;&lt;b&gt;解决办法：&lt;/b&gt;&lt;/font&gt;&lt;/div&gt;&lt;font style=&quot;font-size: 24px;&quot;&gt;&lt;div style=&quot;text-align: left;&quot;&gt;&lt;b style=&quot;background-color: initial;&quot;&gt;做 Refill test 时，发现数据不一致，且是在 cbo.inval 执行过的 cacheline 上，则直接同步香山的数据给 Golden mem 和 nemu 的 pmem&lt;/b&gt;&lt;/div&gt;&lt;/font&gt;" style="rounded=0;whiteSpace=wrap;html=1;fillColor=#FF6666;direction=south;strokeColor=none;" vertex="1" parent="1">
          <mxGeometry x="1681" y="771" width="457" height="174" as="geometry" />
        </mxCell>
        <mxCell id="LbzSEkfw_HT16GFnGWvO-22" value="&lt;font style=&quot;font-size: 30px;&quot;&gt;1&lt;/font&gt;" style="ellipse;whiteSpace=wrap;html=1;aspect=fixed;" vertex="1" parent="1">
          <mxGeometry x="790" y="394" width="38" height="38" as="geometry" />
        </mxCell>
        <mxCell id="LbzSEkfw_HT16GFnGWvO-24" value="&lt;font style=&quot;font-size: 30px;&quot;&gt;2&lt;/font&gt;" style="ellipse;whiteSpace=wrap;html=1;aspect=fixed;" vertex="1" parent="1">
          <mxGeometry x="790" y="526.5" width="38" height="38" as="geometry" />
        </mxCell>
        <mxCell id="LbzSEkfw_HT16GFnGWvO-25" value="&lt;font style=&quot;font-size: 30px;&quot;&gt;3&lt;/font&gt;" style="ellipse;whiteSpace=wrap;html=1;aspect=fixed;" vertex="1" parent="1">
          <mxGeometry x="790" y="642" width="38" height="38" as="geometry" />
        </mxCell>
      </root>
    </mxGraphModel>
  </diagram>
</mxfile>
